<?xml version="1.0"?><svg width="2000" height="2000" xmlns="http://www.w3.org/2000/svg">
 <title>Diamond Ring-ashraf</title>
 <metadata id="metadata4807">image/svg+xmldiamant / diamond2011-02-05lmproulx</metadata>
 <g>
  <title>Layer 1</title>
  <path fill="none" stroke="#000000" stroke-width="14" stroke-linecap="round" stroke-linejoin="round" stroke-miterlimit="4" stroke-dashoffset="3.003" d="m800.258606,364.845215l80.025452,185.126587l102.254761,-219.568634" id="path4662"/>
  <path fill="none" stroke="#000000" stroke-width="14" stroke-linecap="round" stroke-linejoin="round" stroke-miterlimit="4" stroke-dashoffset="3.003" d="m803.921143,350.150543l-157.759216,208.507355l29.612854,-176.591614" id="path4664"/>
  <path fill="none" stroke="#000000" stroke-width="14" stroke-linecap="round" stroke-linejoin="round" stroke-miterlimit="4" stroke-dashoffset="3.003" d="m986.984802,339.013702l177.444153,159.295013l-35.410889,-179.360992" id="path4666"/>
  <path fill="none" stroke="#000000" stroke-width="14" stroke-linecap="round" stroke-linejoin="round" stroke-miterlimit="4" stroke-dashoffset="3.003" id="path4670" d="m512.429993,566.794006c61.475037,60.794006 438.997009,373.187988 438.997009,373.187988l-185.976013,-378.789001l-253.020996,5.601013z"/>
  <path fill="none" stroke="#000000" stroke-width="14" stroke-linecap="round" stroke-linejoin="round" stroke-miterlimit="4" stroke-dashoffset="3.003" id="path4672" d="m953.798828,937.377869l76.303955,-403.860413l-279.318237,29.477844l203.014282,374.382568z"/>
  <path fill="none" stroke="#000000" stroke-width="14" stroke-linecap="round" stroke-linejoin="round" stroke-miterlimit="4" stroke-dashoffset="3.003" id="path4674" d="m508.932007,563.690002l158.859009,-185l142.078979,-31.949005l-57.950012,213.586029l-242.987976,3.362976z"/>
  <path fill="none" stroke="#000000" stroke-width="14" stroke-linecap="round" stroke-linejoin="round" stroke-miterlimit="4" stroke-dashoffset="3.003" id="path4676" d="m978.782837,326.138397l148.420898,-11.384735l156.635376,148.378021l-254.492188,67.318451l-50.564087,-204.311737z"/>
  <path fill="none" stroke="#000000" stroke-width="14" stroke-linecap="round" stroke-linejoin="round" stroke-miterlimit="4" stroke-dashoffset="3.003" id="path4678" d="m809.739868,346.756958l172.097107,-21.503998l49.265808,208.264496l-276.872681,29.177734l55.509766,-215.938232z"/>
  <path fill="none" stroke="#000000" stroke-width="14" stroke-linecap="round" stroke-linejoin="round" stroke-miterlimit="4" stroke-dashoffset="3.003" id="path4680" d="m953.798828,937.377869l330.485962,-473.54657l-254.182007,69.686157l-76.303955,403.860413l0,0z"/>
  <path fill="#ffffff" id="path4688" d="m1214.455566,667.00531l152.130493,61.588318" stroke-width="14"/>
  <path fill="none" stroke="#000000" stroke-linecap="round" stroke-linejoin="round" stroke-miterlimit="4" stroke-dashoffset="3.003" id="path4696" d="m808.568359,346.739746l71.715698,203.232056l102.254761,-219.56897" stroke-width="14"/>
  <path fill="none" stroke="#000000" stroke-linecap="round" stroke-linejoin="round" stroke-miterlimit="4" stroke-dashoffset="3.003" d="m1162.849365,497.58609l-201.350464,429.595062" id="path4708" stroke-width="14"/>
  <path fill="none" stroke="#000000" stroke-linecap="round" stroke-linejoin="round" stroke-miterlimit="4" stroke-dashoffset="3.003" d="m882.532227,547.617615l73.090881,379.563538l-14.185303,-9.36853" id="path4710" stroke-width="14"/>
  <path fill="none" stroke="#000000" stroke-linecap="round" stroke-linejoin="round" stroke-miterlimit="4" stroke-dashoffset="3.003" d="m623.640564,563.021057l321.091553,364.850281" id="path4712" stroke-width="14"/>
  <ellipse ry="425.613277" rx="465.493802" id="svg_3" cy="1438.424315" cx="1023.380972" stroke-width="14" stroke="#000000" fill="none"/>
  <ellipse ry="484.288257" rx="561.548083" id="svg_1" cy="1439.854405" cx="1026.880867" stroke-width="14" stroke="#000000" fill="none"/>
 </g>
</svg>